PathFileType	4	(X/Y/Z)	C:/Users/opensim2020/Desktop/walking_exp_matlab/subject03_walking10_straight_02.trc	
DataRate	CameraRate	NumFrames	NumMarkers	Units	OrigDataRate	OrigDataStartFrame	OrigNumFrames	
100.00	100.00	6	45	mm	100.00	1988	347	
Frame#	Time	LFHD			RFHD			LBHD			RBHD			C7			T10			CLAV			STRN			RBAK			LSHO			LUPA			LELB			LFRM			LWRA			LWRB			LFIN			RSHO			RUPA			RELB			RFRM			RWRA			RWRB			RFIN			LASI			RASI			LPSI			RPSI			LTHI			LKNE			LTIB			LANK			LHEE			LTOE			RTHI			RKNE			RTIB			RANK			RHEE			RTOE			*39			*40			*41			*42			*43			*44			
		X1	Y1	Z1	X2	Y2	Z2	X3	Y3	Z3	X4	Y4	Z4	X5	Y5	Z5	X6	Y6	Z6	X7	Y7	Z7	X8	Y8	Z8	X9	Y9	Z9	X10	Y10	Z10	X11	Y11	Z11	X12	Y12	Z12	X13	Y13	Z13	X14	Y14	Z14	X15	Y15	Z15	X16	Y16	Z16	X17	Y17	Z17	X18	Y18	Z18	X19	Y19	Z19	X20	Y20	Z20	X21	Y21	Z21	X22	Y22	Z22	X23	Y23	Z23	X24	Y24	Z24	X25	Y25	Z25	X26	Y26	Z26	X27	Y27	Z27	X28	Y28	Z28	X29	Y29	Z29	X30	Y30	Z30	X31	Y31	Z31	X32	Y32	Z32	X33	Y33	Z33	X34	Y34	Z34	X35	Y35	Z35	X36	Y36	Z36	X37	Y37	Z37	X38	Y38	Z38	X39	Y39	Z39	X40	Y40	Z40	X41	Y41	Z41	X42	Y42	Z42	X43	Y43	Z43	X44	Y44	Z44	X45	Y45	Z45	

174	1.730	-959.20850	-139.35417	1592.44482	-1091.52063	-128.24054	1596.15100	-951.87585	-6.03131	1571.00525	-1082.83716	0.28183	1573.42627	-1013.20563	48.66882	1403.51416	-1014.90924	85.42722	1087.90320	-1013.04181	-69.75742	1323.78357	-1012.06964	-113.59207	1159.96838	-1112.16797	104.60769	1226.68457	-855.99164	-20.29109	1358.29443	-791.23816	9.29694	1159.22729	-781.93170	14.82135	1035.24500	-785.09570	-6.25604	906.61517	-818.81793	-26.15051	790.55981	-770.97028	2.87185	793.19696	-782.76575	-12.51165	710.71466	-1173.00000	-27.79436	1348.04590	-1247.06250	-60.27452	1129.65576	-1258.84387	-99.23232	1023.59497	-1252.02039	-152.61040	897.67114	-1208.66394	-204.99161	817.45789	-1253.71912	-180.61467	801.45770	-1238.40454	-223.76183	742.63397	-909.56262	-86.34496	920.02161	-1146.93689	-68.76227	921.17023	-944.09882	78.58317	945.41064	-1094.01794	87.05386	958.90857	-869.06195	-88.21902	623.47174	-913.82153	-141.94005	457.44592	-912.38086	-147.66275	266.99771	-948.86951	-194.56331	62.59465	-988.01733	-158.69312	29.42439	-967.90692	-346.16766	36.24490	-1177.79492	38.37132	635.26056	-1144.23792	64.81339	456.74127	-1134.98340	179.51959	297.63846	-1074.90454	279.06287	106.02358	-1018.69843	325.22977	92.00552	-1065.24182	153.62993	29.60561	-1007.85724	-64.12184	1664.45093	-997.58411	-74.41219	1670.22717												 
175	1.740	-958.28876	-147.41006	1593.54480	-1090.58984	-136.05806	1597.26184	-950.84009	-14.10217	1571.79517	-1081.76917	-7.66057	1574.21033	-1011.81049	40.41017	1404.44312	-1014.20490	76.69223	1088.65417	-1012.38013	-78.10928	1324.71326	-1011.86639	-122.18733	1161.04578	-1110.42883	96.61329	1227.43774	-855.03033	-29.55870	1358.95386	-790.56256	-0.66723	1159.76050	-781.57635	4.49186	1035.64856	-785.40826	-16.26634	906.89642	-819.42035	-35.43049	790.86865	-771.26172	-6.95323	793.44672	-783.43127	-22.06178	710.93549	-1172.12915	-35.15711	1349.21179	-1245.67456	-67.14716	1130.41272	-1257.16638	-105.59779	1023.98737	-1250.92883	-157.65233	897.60834	-1207.95837	-209.50775	816.85132	-1252.99060	-184.68713	801.13141	-1237.94482	-227.36197	741.92285	-909.61688	-96.06055	921.96814	-1146.61108	-77.58212	921.45123	-943.48187	69.28649	947.24292	-1093.47314	77.93806	959.22308	-868.70642	-96.17405	625.31714	-913.70056	-149.74710	458.43973	-911.70593	-152.75708	267.51846	-949.19116	-196.24773	62.70646	-987.90155	-159.48846	29.77758	-968.73621	-347.78360	35.39526	-1177.76440	29.05378	635.19073	-1144.98511	55.22412	456.64853	-1135.49170	173.17245	299.86340	-1075.42371	276.19946	109.95438	-1019.09863	322.34448	97.32704	-1065.63342	153.18036	29.60482																		 
176	1.750	-957.33154	-155.43727	1594.78577	-1089.61853	-143.96223	1598.59949	-949.77618	-22.21260	1572.87732	-1080.57886	-15.60262	1575.36609	-1010.48596	32.29214	1405.53662	-1013.48285	68.07468	1089.65283	-1011.71289	-86.41482	1325.99341	-1011.74811	-130.67091	1162.38782	-1108.83691	88.66229	1228.45789	-854.12775	-38.77767	1359.86133	-789.86340	-10.93540	1160.55042	-781.24011	-5.98495	1036.31323	-785.53009	-26.53136	907.55450	-819.87311	-45.11113	791.53857	-771.45190	-17.02310	794.05841	-784.05084	-31.72601	711.48169	-1171.26953	-42.60936	1350.82605	-1244.29675	-73.86810	1131.57959	-1255.73511	-111.73158	1024.93689	-1249.86804	-162.48663	897.91309	-1207.36084	-213.68732	816.51178	-1252.25208	-188.42928	801.10516	-1237.52539	-230.54720	741.45020	-909.46008	-105.70330	924.15942	-1146.13257	-86.52376	922.03760	-942.96002	59.91277	949.25928	-1093.05310	68.91445	959.85321	-867.60834	-104.08949	627.66107	-913.25012	-157.83545	460.21475	-910.91034	-157.50903	268.49548	-949.25378	-196.81593	63.02423	-987.73370	-159.56589	29.86814	-969.56641	-348.65927	34.69828	-1177.76294	19.20835	635.16949	-1146.01794	44.69027	456.66589	-1136.07495	166.18660	302.21347	-1076.27222	272.78101	114.45869	-1019.71906	318.83337	103.43579	-1065.84900	152.69704	29.59791																		 
177	1.760	-956.39813	-163.54677	1596.13184	-1088.63892	-151.93297	1600.02930	-948.63916	-30.39365	1574.19568	-1079.52185	-23.56386	1576.75891	-1009.24469	24.19121	1406.77759	-1012.85413	59.66186	1090.92175	-1011.06964	-94.60761	1327.44617	-1011.59546	-139.21375	1163.98535	-1107.49219	80.61124	1229.73645	-853.29034	-47.98043	1361.07361	-789.18262	-21.23192	1161.52002	-780.74872	-16.57880	1037.31348	-785.58240	-36.98278	908.50806	-820.29132	-54.91119	792.43500	-771.45258	-27.46003	794.98041	-784.54083	-41.80426	712.34918	-1170.32483	-50.12579	1352.57007	-1242.91016	-80.54279	1133.05811	-1254.01416	-117.87332	1026.09448	-1248.89319	-167.11800	898.53333	-1206.77966	-217.60532	816.39740	-1251.67798	-191.93248	801.43140	-1237.29639	-233.37788	741.12048	-909.08105	-115.03235	926.48413	-1145.40869	-95.50864	922.93292	-942.53864	50.69041	951.44012	-1092.68665	59.79207	960.66309	-866.43549	-112.30814	629.94476	-912.96405	-164.62233	461.96329	-910.21899	-161.70198	269.44675	-949.27032	-197.08034	63.16829	-987.52722	-159.60898	29.97112	-969.49744	-349.25543	34.14723	-1177.96106	8.77971	635.32568	-1147.39807	33.05540	456.68320	-1136.96692	158.05751	304.87631	-1077.30432	268.52777	119.46187	-1020.45886	314.46133	110.31135	-1066.00439	152.02119	29.62347	-1003.55072	-87.94404	1668.09778															 
178	1.770	-955.42792	-171.65450	1597.46631	-1087.63074	-159.88750	1601.49243	-947.46295	-38.59355	1575.58484	-1078.36536	-31.54880	1578.40088	-1007.78522	16.06697	1408.27417	-1012.16205	51.17117	1092.27686	-1010.45502	-102.84890	1329.07520	-1011.43616	-147.62935	1165.61169	-1106.40869	72.65496	1231.30042	-852.52411	-57.13946	1362.43750	-788.46460	-31.55903	1162.82678	-780.59888	-27.39585	1038.55554	-785.66986	-47.74200	909.75073	-820.55426	-65.12515	793.66870	-771.35620	-38.27699	796.18188	-784.94293	-52.12806	713.40820	-1169.42920	-57.49094	1354.64429	-1241.62854	-87.13439	1134.74487	-1252.63635	-123.73170	1027.64221	-1248.00098	-171.58875	899.40350	-1206.44824	-221.26601	816.44153	-1251.20117	-195.21762	801.96082	-1237.09290	-235.86484	741.04529	-908.51434	-124.31969	928.90491	-1144.47510	-104.48700	924.11456	-942.25916	41.53178	953.66022	-1092.33069	50.73684	961.60767	-865.24286	-120.57243	632.07684	-912.37671	-170.84090	463.39218	-909.66339	-165.04509	270.00488	-949.24414	-197.24660	63.23653	-987.25745	-159.65584	30.00622	-969.15039	-349.60211	33.77202	-1178.29700	-2.03101	635.62006	-1149.21570	20.28315	456.68747	-1138.41125	148.61894	307.39511	-1078.61829	263.49136	124.97752	-1021.44757	309.15375	117.87329	-1065.97986	151.20062	29.70589	-1002.20044	-96.04453	1669.61499															 
179	1.780	-954.48016	-179.76526	1598.74854	-1086.63696	-167.83846	1602.97693	-946.33612	-46.66054	1577.04688	-1077.17505	-39.46133	1580.04041	-1006.61353	8.06781	1409.68201	-1011.62567	42.83737	1093.76392	-1009.97424	-110.90826	1330.72009	-1011.28381	-156.04384	1167.40674	-1105.55408	64.57271	1232.90332	-851.85620	-66.17860	1363.97778	-787.86578	-41.96992	1164.25793	-780.29736	-38.56842	1040.00659	-785.55090	-58.74393	911.20587	-820.79895	-75.41652	794.97815	-771.14807	-49.42887	797.61401	-785.19592	-62.67155	714.64691	-1168.56677	-64.81824	1356.87415	-1240.40869	-93.55376	1136.61768	-1251.26648	-129.31239	1029.17480	-1247.17700	-175.87152	900.47455	-1206.11377	-224.85944	816.77179	-1250.84949	-198.39862	802.77612	-1236.95422	-238.21025	741.03027	-907.61926	-133.34976	931.25977	-1143.41113	-113.41937	925.54706	-941.90155	32.54868	955.82343	-1091.84119	41.79171	962.78564	-864.09839	-128.50557	633.96747	-911.39667	-176.08287	464.51105	-909.08691	-167.70052	270.42215	-949.07507	-197.36594	63.53561	-987.02863	-159.64943	30.05838	-969.02887	-349.86282	33.47345	-1178.83203	-13.14178	636.00726	-1151.41833	6.52585	456.63461	-1140.27100	138.06812	310.01724	-1080.23401	257.42975	130.82823	-1022.73608	302.92422	126.04288	-1065.89807	150.15630	29.85238																		 
